<svg width="11" height="9" viewBox="0 0 11 9" fill="none" xmlns="http://www.w3.org/2000/svg">
<path d="M5.07809 1.56844L5.49992 2.23131L5.92175 1.56844C6.31075 0.957151 6.99916 0.5625 7.79158 0.5625C9.02794 0.5625 10.0416 1.57614 10.0416 2.8125C10.0416 3.34956 9.79276 3.93344 9.35062 4.53635C8.91229 5.13407 8.31696 5.70536 7.70413 6.20677C7.09377 6.70616 6.48089 7.12424 6.01924 7.41801C5.80922 7.55166 5.6315 7.65895 5.50085 7.73583C5.37009 7.65835 5.1921 7.55018 4.98173 7.41551C4.51993 7.11989 3.90683 6.69958 3.29623 6.19861C2.68315 5.6956 2.08752 5.12338 1.64898 4.52636C1.20634 3.92376 0.958252 3.34301 0.958252 2.8125C0.958252 1.57614 1.97189 0.5625 3.20825 0.5625C4.00068 0.5625 4.68909 0.957151 5.07809 1.56844Z" fill="white" stroke="#FF9401"/>
</svg>
